<svg width="13" height="13" viewBox="0 0 13 13" fill="none" xmlns="http://www.w3.org/2000/svg">
<g clip-path="url(#clip0_3_218189)">
<path d="M9.21094 7.58398V1.08398" stroke="#EF4444" stroke-width="1.08333" stroke-linecap="round" stroke-linejoin="round"/>
<path d="M4.87146 9.81565L5.41313 7.58398H2.25521C2.08703 7.58398 1.92115 7.54483 1.77073 7.46961C1.6203 7.3944 1.48945 7.2852 1.38854 7.15065C1.28763 7.01611 1.21943 6.85991 1.18935 6.69444C1.15926 6.52897 1.16812 6.35877 1.21521 6.19732L2.47729 1.86398C2.54292 1.63896 2.67977 1.44129 2.86729 1.30065C3.05481 1.16001 3.28289 1.08398 3.51729 1.08398H10.8298C11.1171 1.08398 11.3927 1.19812 11.5958 1.40129C11.799 1.60445 11.9131 1.88 11.9131 2.16732V6.50065C11.9131 6.78797 11.799 7.06352 11.5958 7.26668C11.3927 7.46985 11.1171 7.58398 10.8298 7.58398H9.33479C9.13325 7.58409 8.93573 7.64042 8.76444 7.74664C8.59316 7.85285 8.4549 8.00474 8.36521 8.18523L6.49646 11.9173C6.24102 11.9142 5.9896 11.8533 5.76098 11.7393C5.53236 11.6253 5.33246 11.4612 5.1762 11.2591C5.01994 11.057 4.91137 10.8222 4.8586 10.5723C4.80583 10.3223 4.81023 10.0637 4.87146 9.81565Z" stroke="#EF4444" stroke-width="1.08333" stroke-linecap="round" stroke-linejoin="round"/>
</g>
<defs>
<clipPath id="clip0_3_218189">
<rect width="13" height="13" fill="white"/>
</clipPath>
</defs>
</svg>
