<svg width="40" height="40" viewBox="0 0 40 40" fill="none" xmlns="http://www.w3.org/2000/svg">
<path d="M0 12C0 5.37258 5.37258 0 12 0H28C34.6274 0 40 5.37258 40 12V28C40 34.6274 34.6274 40 28 40H12C5.37258 40 0 34.6274 0 28V12Z" fill="#FFFBEB"/>
<path d="M20 27.5C24.1421 27.5 27.5 24.1421 27.5 20C27.5 15.8579 24.1421 12.5 20 12.5C15.8579 12.5 12.5 15.8579 12.5 20C12.5 24.1421 15.8579 27.5 20 27.5Z" stroke="#D97706" stroke-width="1.5" stroke-linecap="round" stroke-linejoin="round"/>
<path d="M20 15.5V20L23 21.5" stroke="#D97706" stroke-width="1.5" stroke-linecap="round" stroke-linejoin="round"/>
</svg>
